<?xml version="1.0" standalone="no"?>
<!DOCTYPE svg PUBLIC "-//W3C//DTD SVG 20010904//EN"
 "http://www.w3.org/TR/2001/REC-SVG-20010904/DTD/svg10.dtd">
<svg version="1.0" xmlns="http://www.w3.org/2000/svg"
 width="756.000000pt" height="1080.000000pt" viewBox="0 0 756.000000 1080.000000"
 preserveAspectRatio="xMidYMid meet">
<metadata>
Created by potrace 1.16, written by Peter Selinger 2001-2019
</metadata>
<g transform="translate(0.000000,1080.000000) scale(0.100000,-0.100000)"
fill="#000000" stroke="none">
<path d="M4289 8997 c-9 -25 -17 -33 -27 -29 -9 3 -13 1 -9 -4 3 -6 -4 -11
-15 -11 -19 -2 -19 -1 -4 16 21 23 21 37 0 20 -15 -12 -16 -11 -11 11 4 15 0
11 -9 -10 -9 -19 -17 -45 -18 -57 0 -11 -4 -19 -8 -17 -4 2 -9 -4 -13 -15 -19
-61 -131 -203 -199 -253 -21 -15 -36 -28 -31 -28 18 0 124 64 168 101 66 57
149 176 141 203 -3 14 -2 17 4 8 6 -9 15 2 31 39 11 29 19 54 17 56 -2 3 -10
-11 -17 -30z"/>
<path d="M6645 7847 c-132 -54 -280 -164 -459 -343 -133 -133 -353 -394 -331
-394 3 0 22 11 43 25 20 13 57 28 81 34 59 13 199 -2 247 -27 81 -41 188 -149
269 -272 17 -25 32 -47 35 -50 3 -3 16 -20 29 -38 13 -19 27 -30 31 -25 20 21
190 374 190 393 0 6 4 18 9 28 4 9 14 33 20 52 45 134 70 211 80 250 7 25 17
59 22 76 5 17 9 40 9 52 0 11 4 23 9 26 16 10 22 75 11 115 -13 50 -54 100
-97 117 -52 22 -111 16 -198 -19z"/>
<path d="M4302 6975 c-229 -50 -428 -226 -580 -515 -60 -115 -94 -203 -127
-335 -28 -108 -56 -294 -54 -359 1 -24 7 0 15 58 16 125 28 174 71 306 106
325 308 602 521 713 50 27 92 46 92 42 0 -3 9 -1 19 5 43 22 171 41 289 42
108 0 144 5 100 12 -7 1 -23 7 -35 14 -26 14 -141 32 -203 31 -25 0 -73 -7
-108 -14z"/>
<path d="M6372 5895 c-79 -66 -63 -306 27 -406 28 -32 45 -42 79 -46 39 -5 45
-3 75 29 41 44 57 95 57 185 0 79 -18 141 -56 191 -56 73 -129 92 -182 47z"/>
<path d="M5624 5559 c-45 -29 -47 -33 -30 -43 61 -35 72 -81 30 -122 -20 -21
-33 -25 -61 -22 l-35 4 5 -52 c6 -61 27 -106 71 -152 43 -46 77 -62 132 -62
177 0 257 257 127 409 -67 79 -153 94 -239 40z"/>
<path d="M7135 4113 c-23 -6 -45 -23 -28 -23 6 0 10 -17 9 -40 0 -22 2 -40 7
-40 9 0 9 -66 1 -137 -6 -49 -9 -53 -33 -53 l-27 0 4 125 c3 82 1 125 -6 125
-20 0 -87 -88 -124 -161 -114 -229 -122 -539 -16 -613 25 -18 93 -22 103 -6 4
6 11 7 17 4 7 -5 9 -1 5 9 -3 8 1 21 9 28 8 6 12 14 10 17 -3 2 6 26 20 52 28
53 57 144 86 270 23 104 31 387 11 412 -10 11 -10 17 -1 26 9 9 7 12 -7 11
-11 -1 -29 -3 -40 -6z"/>
<path d="M6415 3730 c-4 -6 -2 -16 3 -23 15 -19 24 -120 16 -196 -6 -69 -7
-71 -35 -71 -27 0 -28 1 -23 53 9 103 9 217 0 217 -17 0 -100 -96 -128 -147
-27 -48 -79 -188 -93 -248 -39 -171 -11 -365 61 -412 33 -21 94 -20 132 2 28
17 29 20 14 31 -16 12 -16 13 1 19 9 4 17 13 17 20 0 8 6 20 13 27 12 13 18
33 59 183 36 134 49 229 48 364 0 116 -2 135 -17 147 -17 13 -17 14 2 7 17 -6
18 -5 7 9 -10 13 -10 17 0 21 7 3 -6 6 -29 6 -23 1 -45 -4 -48 -9z"/>
<path d="M1782 2508 c-43 -46 -114 -108 -124 -108 -4 0 -8 -4 -8 -10 0 -5 -4
-10 -10 -10 -5 0 -22 -12 -37 -26 -54 -50 -60 -54 -67 -54 -4 0 -21 -13 -39
-30 -18 -16 -47 -37 -65 -46 -18 -8 -36 -22 -39 -30 -3 -8 -11 -14 -19 -14 -8
0 -14 -4 -14 -9 0 -5 -11 -12 -25 -15 -14 -4 -23 -11 -20 -16 3 -5 -18 -11
-47 -13 -51 -3 -51 -3 13 -5 280 -8 583 84 738 224 59 54 62 59 45 71 -26 19
-230 123 -242 123 -5 0 -23 -15 -40 -32z"/>
<path d="M5640 2371 c0 -5 -15 -14 -32 -22 -18 -7 -35 -15 -38 -18 -15 -17
-310 -151 -331 -151 -5 0 -23 -9 -40 -19 l-31 -19 64 -20 c130 -43 230 -55
418 -49 134 4 194 10 255 26 77 21 212 77 204 85 -2 3 -34 11 -71 20 -44 10
-122 44 -219 96 -145 77 -179 90 -179 71z"/>
<path d="M4404 1975 c-11 -11 -35 -67 -54 -125 -98 -311 -239 -591 -409 -813
-28 -36 -61 -76 -73 -89 -13 -13 -33 -35 -45 -51 -11 -15 -36 -34 -54 -42 -53
-23 -20 -17 59 9 85 29 194 85 187 97 -3 4 0 11 6 15 8 4 9 3 5 -4 -4 -7 -2
-12 4 -12 6 0 46 35 89 78 110 108 129 150 211 476 38 149 81 314 95 366 28
105 29 114 16 106 -5 -4 -11 -3 -13 1 -1 5 -12 -1 -24 -12z"/>
<path d="M0 400 l0 -400 3780 0 3780 0 0 400 0 400 -3780 0 -3780 0 0 -400z
m1395 106 c25 -11 33 -19 29 -30 -7 -19 -5 -19 -40 -1 -36 18 -55 19 -78 2
-28 -21 -9 -45 49 -62 87 -25 108 -74 54 -127 -29 -29 -33 -30 -90 -25 -68 6
-72 8 -64 29 5 13 12 14 40 5 50 -15 100 1 100 33 0 16 -8 28 -25 36 -87 40
-105 51 -108 67 -14 70 53 106 133 73z m587 -48 l3 -62 36 32 c20 18 45 32 55
32 14 0 9 -9 -21 -40 l-39 -40 42 -60 c40 -57 41 -60 20 -60 -16 0 -32 14 -53
45 -16 25 -33 45 -37 45 -5 0 -8 -20 -8 -45 0 -38 -3 -45 -20 -45 -19 0 -20 7
-20 130 0 122 1 130 20 130 16 0 19 -8 22 -62z m-1353 -24 c12 -15 21 -40 21
-55 0 -29 0 -29 -65 -29 -72 0 -83 -12 -44 -51 17 -17 30 -20 65 -16 43 4 59
-5 28 -17 -45 -17 -106 3 -123 41 -45 98 56 206 118 127z m456 3 c20 -16 28
-35 32 -69 5 -42 3 -50 -25 -78 -41 -41 -83 -41 -124 0 -28 28 -30 36 -25 78
9 82 84 119 142 69z m622 8 c30 -21 44 -75 32 -120 -25 -88 -143 -88 -168 0
-20 72 20 135 84 135 17 0 40 -7 52 -15z"/>
<path d="M986 424 c-50 -50 -21 -144 44 -144 48 0 80 50 66 104 -13 53 -75 75
-110 40z"/>
</g>
</svg>
